<svg width="41" height="40" viewBox="0 0 41 40" fill="none" xmlns="http://www.w3.org/2000/svg">
<path d="M16.8219 8H23.3031C24.6471 8 25.713 8 26.5708 8.07015C27.4496 8.14154 28.1917 8.29169 28.8711 8.63631C29.971 9.19735 30.865 10.0922 31.425 11.1926C31.7708 11.8695 31.921 12.6129 31.9923 13.4917C32.0625 14.3495 32.0625 15.4154 32.0625 16.7594V23.2406C32.0625 24.5846 32.0625 25.6505 31.9923 26.5083C31.921 27.3871 31.7708 28.1292 31.4262 28.8086C30.8655 29.9083 29.9711 30.8023 28.8711 31.3625C28.1917 31.7083 27.4496 31.8585 26.5708 31.9298C25.713 32 24.6471 32 23.3031 32H16.8219C15.4779 32 14.412 32 13.5542 31.9298C12.6754 31.8585 11.9333 31.7083 11.2551 31.3637C10.155 30.8032 9.26055 29.9088 8.70004 28.8086C8.35419 28.1292 8.20404 27.3871 8.13265 26.5083C8.0625 25.6505 8.0625 24.5846 8.0625 23.2406V16.7594C8.0625 15.4154 8.0625 14.3495 8.13265 13.4917C8.20404 12.6129 8.35419 11.8708 8.69881 11.1926C9.25964 10.0923 10.1545 9.19784 11.2551 8.63754C11.932 8.29169 12.6754 8.14154 13.5542 8.07015C14.412 8 15.4779 8 16.8219 8ZM13.7043 9.91015C12.9413 9.97169 12.4674 10.0911 12.092 10.2818C11.3396 10.6653 10.7278 11.2771 10.3443 12.0295C10.1536 12.4049 10.0354 12.8788 9.97265 13.6418C9.90988 14.4172 9.90865 15.4068 9.90865 16.8V23.2C9.90865 24.5945 9.90865 25.584 9.97265 26.3582C10.0342 27.1212 10.1536 27.5951 10.3443 27.9705C10.7278 28.7229 11.3396 29.3347 12.092 29.7182C12.4674 29.9089 12.9413 30.0271 13.7043 30.0898C14.1868 30.1292 14.7517 30.144 15.4471 30.1514V9.84862C14.7517 9.85477 14.1868 9.87077 13.7043 9.91015Z" fill="#151515"/>
</svg>
