<svg width="20" height="18" viewBox="0 0 20 18" fill="none" xmlns="http://www.w3.org/2000/svg">
<path d="M16.5625 0H2.5625C2.03207 0 1.52336 0.210714 1.14829 0.585786C0.773214 0.960859 0.5625 1.46957 0.5625 2V16C0.5625 16.5304 0.773214 17.0391 1.14829 17.4142C1.52336 17.7893 2.03207 18 2.5625 18H16.5625C17.0929 18 17.6016 17.7893 17.9767 17.4142C18.3518 17.0391 18.5625 16.5304 18.5625 16V2C18.5625 1.46957 18.3518 0.960859 17.9767 0.585786C17.6016 0.210714 17.0929 0 16.5625 0ZM16.5625 16H2.5625V2H16.5625V16ZM6.5625 14H4.5625V9H6.5625V14ZM10.5625 14H8.5625V7H10.5625V14ZM14.5625 14H12.5625V4H14.5625V14Z" fill="#151515"/>
</svg>
