<svg
            width="16"
            height="16"
            viewBox="0 0 16 16"
            fill="none"
            xmlns="http://www.w3.org/2000/svg"
          >
            <path
              d="M2.24875 2.28378C2.22625 2.12503 2.2 1.43128 1.595 1.49253C1.09 1.54378 1.1175 2.08753 1.16625 2.34128C1.19375 2.48503 2.79125 15.1438 2.8125 15.2813C2.84125 15.465 3.0975 15.6563 3.39 15.6263C3.6825 15.5975 3.85375 15.37 3.8475 15.1538C3.8425 14.9888 2.27875 2.50003 2.24875 2.28378Z"
              fill="#B0B0B0"
            />
            <path
              d="M3.23 14.8438C3.1525 14.8438 3.085 14.7863 3.075 14.7075L1.4375 2.06752C1.4322 2.02641 1.44344 1.98488 1.46876 1.95206C1.49408 1.91924 1.5314 1.89783 1.5725 1.89252C1.61361 1.88722 1.65514 1.89846 1.68796 1.92378C1.72078 1.94909 1.7422 1.98641 1.7475 2.02752L3.385 14.6675C3.39625 14.7525 3.33625 14.8313 3.25 14.8425C3.24375 14.8438 3.2375 14.8438 3.23 14.8438Z"
              fill="#C8C8C8"
            />
            <path
              d="M2.26 2.39622L3.2725 10.5237C3.2725 10.5237 3.60875 10.0862 4.5475 10.105C5.2 10.1187 6.1975 10.2575 7.49875 9.82122C9.22625 9.24247 10.1838 8.25747 12.0713 7.92747C13.495 7.67872 14.7938 7.94497 14.8263 7.86622C14.8525 7.80497 14.7863 7.38247 14.78 7.38372C14.655 7.40372 10.7413 5.07997 10.7413 5.07997L2.67375 2.15747C2.67375 2.15747 2.5925 2.21247 2.4425 2.28747C2.3275 2.34372 2.26 2.39622 2.26 2.39622Z"
              fill="#9A9A9A"
            />
            <path
              d="M2.67 2.15375C2.67 2.15375 2.99 1.9 3.7725 1.84625C5.14375 1.75125 5.765 2.15375 7.0025 1.8825C8.36625 1.5825 9.28125 0.633747 10.71 0.448747C12.3387 0.237497 13.3762 0.742497 13.3762 0.742497C13.3762 0.742497 13.8475 2.24625 14.1512 3.93375C14.4325 5.5 14.78 7.385 14.78 7.385L14.3487 7.32125L2.74875 2.77375L2.67 2.15375Z"
              fill="#D7CDC7"
            />
            <path
              d="M13.0663 1.05873C12.9275 0.949982 11.5188 0.547482 10.2338 0.903732C8.94875 1.25998 8.33 2.01748 7.07625 2.31248C5.8225 2.60748 4.8475 2.21248 4.15125 2.26873C2.99 2.36123 2.7375 2.70123 2.7375 2.70123L3.57875 9.67873C3.57875 9.67873 3.985 9.55873 4.585 9.56748C5.4875 9.57998 6.14125 9.64873 7.21 9.33998C8.27875 9.03123 9.7925 8.03373 11.2425 7.58498C13.0063 7.03873 14.4413 7.38373 14.4275 7.32748C14.4138 7.26998 14.0563 5.39248 13.715 3.61373C13.3763 1.83248 13.0663 1.05873 13.0663 1.05873Z"
              fill="#F1EDEC"
            />
            <path
              d="M8.425 2.48126C8.375 2.78376 8.595 5.16251 8.31375 6.23626C8.0325 7.31001 7.4475 8.12751 7.06875 8.49376C6.69 8.86001 6.495 9.06751 6.55625 9.14001C6.6175 9.21251 7.52 8.88376 8.47125 8.32251C9.4225 7.76126 9.81375 7.44376 9.91125 7.29751C10.0088 7.15126 10.3138 6.10251 10.4475 4.98001C10.5813 3.85751 10.705 2.34751 10.765 1.94251C10.8138 1.61251 10.9363 1.27126 10.8625 1.24751C10.7888 1.22251 10.1 1.30501 9.5325 1.58876C8.94875 1.88126 8.4675 2.22001 8.425 2.48126ZM3.33625 2.90626C3.3 3.12501 3.495 5.12626 3.605 6.15126C3.715 7.17626 3.96125 8.98001 4.145 8.96126C4.4825 8.92751 4.7025 5.71751 5.35 4.41876C5.84125 3.43251 6.32625 3.01626 6.31375 2.93001C6.30125 2.84376 4.6525 2.44626 4.0325 2.56376C3.32375 2.69876 3.33625 2.90626 3.33625 2.90626Z"
              fill="#FEFEFE"
            />
          </svg>