<svg width="24" height="24" viewBox="0 0 24 24" fill="none" xmlns="http://www.w3.org/2000/svg">
<path d="M12 16.0909C10.8682 16.0909 9.90355 15.6919 9.10609 14.8939C8.30864 14.0959 7.90964 13.1313 7.90909 12C7.90855 10.8687 8.30755 9.90409 9.10609 9.10609C9.90464 8.30809 10.8693 7.90909 12 7.90909C13.1307 7.90909 14.0956 8.30809 14.8947 9.10609C15.6938 9.90409 16.0925 10.8687 16.0909 12C16.0893 13.1313 15.6903 14.0962 14.8939 14.8947C14.0975 15.6933 13.1329 16.092 12 16.0909ZM6.27273 12.8182H3V11.1818H6.27273V12.8182ZM21 12.8182H17.7273V11.1818H21V12.8182ZM11.1818 6.27273V3H12.8182V6.27273H11.1818ZM11.1818 21V17.7273H12.8182V21H11.1818ZM7.41818 8.52273L5.35227 6.53864L6.51818 5.33182L8.48182 7.37727L7.41818 8.52273ZM17.4818 18.6682L15.4977 16.6023L16.5818 15.4773L18.6477 17.4614L17.4818 18.6682ZM15.4773 7.41818L17.4614 5.35227L18.6682 6.51818L16.6227 8.48182L15.4773 7.41818ZM5.33182 17.4818L7.39773 15.4977L8.52273 16.5818L6.53864 18.6477L5.33182 17.4818Z" fill="#292929"/>
</svg>
