<svg width="24" height="26" viewBox="0 0 24 26" fill="none" xmlns="http://www.w3.org/2000/svg">
<path d="M19.8182 16.216L18.0606 14.4563C18.3434 13.9911 18.5556 13.5057 18.697 13C18.8384 12.4943 18.9091 11.9684 18.9091 11.4223H21.3333C21.3333 12.3123 21.202 13.157 20.9394 13.9563C20.6768 14.7557 20.303 15.5089 19.8182 16.216ZM16.2424 12.5752L9.21212 5.53641V4.14078C9.21212 3.12945 9.56566 2.26982 10.2727 1.56189C10.9798 0.853964 11.8384 0.5 12.8485 0.5C13.8586 0.5 14.7172 0.853964 15.4242 1.56189C16.1313 2.26982 16.4848 3.12945 16.4848 4.14078V11.4223C16.4848 11.6448 16.4598 11.8471 16.4097 12.0291C16.3596 12.2112 16.3038 12.3932 16.2424 12.5752ZM11.6364 23.5583V19.7961C9.53535 19.5129 7.79798 18.5777 6.42424 16.9903C5.0505 15.4029 4.36364 13.5469 4.36364 11.4223H6.78788C6.78788 13.1011 7.37899 14.5324 8.56121 15.716C9.74343 16.8997 11.1725 17.4911 12.8485 17.4903C13.5354 17.4903 14.1871 17.3843 14.8036 17.1723C15.4202 16.9604 15.9806 16.6618 16.4848 16.2767L18.2121 18.0061C17.6263 18.4713 16.9846 18.8608 16.2873 19.1748C15.5899 19.4887 14.8477 19.6958 14.0606 19.7961V23.5583H11.6364ZM22.303 25.5L0 3.1699L1.69697 1.47087L24 23.801L22.303 25.5Z" fill="#FAFAFA"/>
</svg>
