<svg width="19" height="18" viewBox="0 0 19 18" fill="none" xmlns="http://www.w3.org/2000/svg">
<path fill-rule="evenodd" clip-rule="evenodd" d="M5.03125 4C5.03125 2.93913 5.45268 1.92172 6.20282 1.17157C6.95297 0.421427 7.97038 0 9.03125 0C10.0921 0 11.1095 0.421427 11.8597 1.17157C12.6098 1.92172 13.0312 2.93913 13.0312 4C13.0312 5.06087 12.6098 6.07828 11.8597 6.82843C11.1095 7.57857 10.0921 8 9.03125 8C7.97038 8 6.95297 7.57857 6.20282 6.82843C5.45268 6.07828 5.03125 5.06087 5.03125 4ZM5.03125 10C3.70517 10 2.4334 10.5268 1.49572 11.4645C0.558034 12.4021 0.03125 13.6739 0.03125 15C0.03125 15.7956 0.347321 16.5587 0.90993 17.1213C1.47254 17.6839 2.2356 18 3.03125 18H15.0312C15.8269 18 16.59 17.6839 17.1526 17.1213C17.7152 16.5587 18.0312 15.7956 18.0312 15C18.0312 13.6739 17.5045 12.4021 16.5668 11.4645C15.6291 10.5268 14.3573 10 13.0312 10H5.03125Z" fill="#151515"/>
</svg>
