<svg width="20" height="20" viewBox="0 0 20 20" fill="none" xmlns="http://www.w3.org/2000/svg">
<path d="M10.815 10.197L3.28296 11.452C3.19636 11.4664 3.1151 11.5034 3.04734 11.5593C2.97958 11.6151 2.92772 11.6878 2.89696 11.77L0.299958 18.728C0.0519578 19.368 0.720958 19.978 1.33496 19.67L19.335 10.67C19.4594 10.6076 19.564 10.5119 19.6371 10.3935C19.7102 10.2751 19.7489 10.1387 19.7489 9.99949C19.7489 9.86033 19.7102 9.72391 19.6371 9.6055C19.564 9.48708 19.4594 9.39134 19.335 9.32899L1.33496 0.328989C0.720958 0.0219894 0.0519578 0.631989 0.299958 1.27099L2.89796 8.22899C2.92872 8.31122 2.98058 8.3839 3.04834 8.43972C3.1161 8.49554 3.19736 8.53254 3.28396 8.54699L10.816 9.80199C10.8629 9.80949 10.9057 9.83349 10.9366 9.86969C10.9675 9.90589 10.9844 9.95191 10.9844 9.99949C10.9844 10.0471 10.9675 10.0931 10.9366 10.1293C10.9057 10.1655 10.8629 10.1895 10.816 10.197" fill="#FAFAFA"/>
</svg>
