<svg width="19" height="18" viewBox="0 0 19 18" fill="none" xmlns="http://www.w3.org/2000/svg">
<path fill-rule="evenodd" clip-rule="evenodd" d="M11.0184 2.547C11.4264 2.673 11.8165 2.835 12.1884 3.033L13.8381 2.043C14.0102 1.93983 14.2117 1.89707 14.4108 1.92153C14.6099 1.94599 14.7951 2.03626 14.937 2.178L15.8532 3.0942C15.995 3.23613 16.0853 3.42134 16.1097 3.62044C16.1342 3.81953 16.0914 4.02108 15.9882 4.1931L14.9982 5.8428C15.1962 6.2148 15.3582 6.6048 15.4843 7.0128L17.3499 7.4799C17.5446 7.52865 17.7173 7.64104 17.8408 7.79921C17.9642 7.95738 18.0312 8.15226 18.0312 8.3529V9.6471C18.0312 9.84774 17.9642 10.0426 17.8408 10.2008C17.7173 10.359 17.5446 10.4713 17.3499 10.5201L15.4843 10.9872C15.3582 11.3952 15.1962 11.7852 14.9982 12.1572L15.9882 13.8069C16.0914 13.9789 16.1342 14.1805 16.1097 14.3796C16.0853 14.5787 15.995 14.7639 15.8532 14.9058L14.937 15.822C14.7951 15.9637 14.6099 16.054 14.4108 16.0785C14.2117 16.1029 14.0102 16.0602 13.8381 15.957L12.1884 14.967C11.8165 15.165 11.4264 15.327 11.0184 15.453L10.5513 17.3187C10.5026 17.5133 10.3902 17.6861 10.232 17.8095C10.0739 17.9329 9.87899 18 9.67835 18H8.38415C8.18351 18 7.98863 17.9329 7.83046 17.8095C7.67229 17.6861 7.5599 17.5133 7.51115 17.3187L7.04405 15.453C6.63968 15.328 6.24795 15.1653 5.87405 14.967L4.22435 15.957C4.05233 16.0602 3.85078 16.1029 3.65169 16.0785C3.45259 16.054 3.26738 15.9637 3.12545 15.822L2.20925 14.9058C2.06751 14.7639 1.97724 14.5787 1.95278 14.3796C1.92832 14.1805 1.97108 13.9789 2.07425 13.8069L3.06425 12.1572C2.86593 11.7833 2.70321 11.3916 2.57825 10.9872L0.71255 10.5201C0.518078 10.4714 0.345439 10.3591 0.222016 10.2011C0.0985943 10.0432 0.0314558 9.84848 0.03125 9.648V8.3538C0.0312553 8.15316 0.0983019 7.95828 0.22174 7.80011C0.345178 7.64194 0.517928 7.52955 0.71255 7.4808L2.57825 7.0137C2.70425 6.6057 2.86625 6.2157 3.06425 5.8437L2.07425 4.194C1.97108 4.02198 1.92832 3.82043 1.95278 3.62134C1.97724 3.42224 2.06751 3.23703 2.20925 3.0951L3.12545 2.178C3.26738 2.03626 3.45259 1.94599 3.65169 1.92153C3.85078 1.89707 4.05233 1.93983 4.22435 2.043L5.87405 3.033C6.24605 2.835 6.63605 2.673 7.04405 2.547L7.51115 0.6813C7.55987 0.486828 7.67212 0.314189 7.83011 0.190766C7.9881 0.0673443 8.18277 0.000205778 8.38325 0H9.67745C9.87809 5.27439e-06 10.073 0.0670519 10.2311 0.19049C10.3893 0.313928 10.5017 0.486678 10.5504 0.6813L11.0184 2.547ZM9.03125 12.6C9.98603 12.6 10.9017 12.2207 11.5768 11.5456C12.252 10.8705 12.6312 9.95478 12.6312 9C12.6312 8.04522 12.252 7.12955 11.5768 6.45442C10.9017 5.77928 9.98603 5.4 9.03125 5.4C8.07647 5.4 7.1608 5.77928 6.48567 6.45442C5.81053 7.12955 5.43125 8.04522 5.43125 9C5.43125 9.95478 5.81053 10.8705 6.48567 11.5456C7.1608 12.2207 8.07647 12.6 9.03125 12.6Z" fill="#151515"/>
</svg>
