<svg width="45" height="44" viewBox="0 0 45 44" fill="none" xmlns="http://www.w3.org/2000/svg">
<rect x="0.0625" width="44" height="44" rx="22" fill="#292929"/>
<path d="M29.0625 25C29.2625 24.8 29.5002 24.7 29.7755 24.7C30.0508 24.7 30.2882 24.8 30.4875 25L32.0625 26.6C32.2625 26.8 32.3625 27.0333 32.3625 27.3C32.3625 27.5667 32.2625 27.8 32.0625 28C31.8625 28.2 31.6292 28.3 31.3625 28.3C31.0958 28.3 30.8625 28.2 30.6625 28L29.0625 26.425C28.8625 26.225 28.7625 25.9877 28.7625 25.713C28.7625 25.4383 28.8625 25.2007 29.0625 25ZM30.0625 13C30.2625 13.2 30.3625 13.4377 30.3625 13.713C30.3625 13.9883 30.2625 14.2257 30.0625 14.425L28.4875 16C28.2875 16.2 28.0502 16.3 27.7755 16.3C27.5008 16.3 27.2632 16.2 27.0625 16C26.8618 15.8 26.7618 15.5627 26.7625 15.288C26.7632 15.0133 26.8632 14.7757 27.0625 14.575L28.6625 13C28.8625 12.8 29.0958 12.7 29.3625 12.7C29.6292 12.7 29.8625 12.8 30.0625 13ZM14.0625 13C14.2625 12.8 14.5002 12.7 14.7755 12.7C15.0508 12.7 15.2882 12.8 15.4875 13L17.0625 14.6C17.2625 14.8 17.3625 15.0333 17.3625 15.3C17.3625 15.5667 17.2625 15.8 17.0625 16C16.8625 16.2 16.6252 16.3 16.3505 16.3C16.0758 16.3 15.8382 16.2 15.6375 16L14.0625 14.425C13.8625 14.225 13.7625 13.9877 13.7625 13.713C13.7625 13.4383 13.8625 13.2007 14.0625 13ZM15.0625 25C15.2625 25.2 15.3625 25.4377 15.3625 25.713C15.3625 25.9883 15.2625 26.2257 15.0625 26.425L13.4875 28C13.2875 28.2 13.0502 28.3 12.7755 28.3C12.5008 28.3 12.2632 28.2 12.0625 28C11.8618 27.8 11.7618 27.5627 11.7625 27.288C11.7632 27.0133 11.8632 26.7757 12.0625 26.575L13.6625 25C13.8625 24.8 14.0958 24.7 14.3625 24.7C14.6292 24.7 14.8625 24.8 15.0625 25ZM22.0625 27.275L17.9125 29.775C17.7292 29.8917 17.5375 29.9417 17.3375 29.925C17.1375 29.9083 16.9625 29.8417 16.8125 29.725C16.6625 29.6083 16.5458 29.4627 16.4625 29.288C16.3792 29.1133 16.3625 28.9173 16.4125 28.7L17.5125 23.975L13.8375 20.8C13.6708 20.65 13.5668 20.479 13.5255 20.287C13.4842 20.095 13.4965 19.9077 13.5625 19.725C13.6285 19.5423 13.7285 19.3923 13.8625 19.275C13.9965 19.1577 14.1798 19.0827 14.4125 19.05L19.2625 18.625L21.1375 14.175C21.2208 13.975 21.3502 13.825 21.5255 13.725C21.7008 13.625 21.8798 13.575 22.0625 13.575C22.2452 13.575 22.4242 13.625 22.5995 13.725C22.7748 13.825 22.9042 13.975 22.9875 14.175L24.8625 18.625L29.7125 19.05C29.9458 19.0833 30.1292 19.1583 30.2625 19.275C30.3958 19.3917 30.4958 19.5417 30.5625 19.725C30.6292 19.9083 30.6418 20.096 30.6005 20.288C30.5592 20.48 30.4548 20.6507 30.2875 20.8L26.6125 23.975L27.7125 28.7C27.7625 28.9167 27.7458 29.1127 27.6625 29.288C27.5792 29.4633 27.4625 29.609 27.3125 29.725C27.1625 29.841 26.9875 29.9077 26.7875 29.925C26.5875 29.9423 26.3958 29.8923 26.2125 29.775L22.0625 27.275Z" fill="#C6B3FC"/>
</svg>
